<svg width="20" height="17" fill="none" xmlns="http://www.w3.org/2000/svg"><path d="M10 17c-.285 0-.56-.099-.773-.278a224.607 224.607 0 00-2.274-1.868l-.004-.003c-2.015-1.64-3.755-3.058-4.965-4.453C.63 8.838 0 7.358 0 5.743c0-1.57.564-3.02 1.587-4.08C2.622.592 4.043 0 5.587 0 6.742 0 7.8.349 8.73 1.036c.47.347.895.772 1.27 1.268.375-.496.8-.92 1.27-1.268A5.182 5.182 0 0114.414 0c1.544 0 2.965.59 4 1.664C19.438 2.724 20 4.172 20 5.743c0 1.616-.63 3.095-1.983 4.655-1.211 1.396-2.95 2.812-4.965 4.452-.689.56-1.47 1.196-2.279 1.873A1.206 1.206 0 0110 17zM5.587 1.12c-1.213 0-2.328.462-3.14 1.302-.822.853-1.276 2.032-1.276 3.32 0 1.36.53 2.575 1.715 3.942 1.145 1.32 2.85 2.708 4.823 4.315l.004.003c.69.561 1.471 1.198 2.285 1.878.82-.681 1.602-1.319 2.294-1.881 1.973-1.607 3.677-2.994 4.823-4.315 1.185-1.367 1.714-2.582 1.714-3.941 0-1.289-.454-2.468-1.277-3.32-.81-.841-1.926-1.304-3.139-1.304a4 4 0 00-2.426.803c-.642.474-1.09 1.074-1.352 1.494a.741.741 0 01-.635.345.741.741 0 01-.635-.345c-.262-.42-.71-1.02-1.352-1.494a4.002 4.002 0 00-2.426-.803z" fill="#FF6767"/></svg>