<svg width="20" height="17" fill="none" xmlns="http://www.w3.org/2000/svg"><path d="M18.413 1.664C17.378.59 15.957 0 14.413 0a5.183 5.183 0 00-3.143 1.036c-.47.347-.895.772-1.27 1.268-.375-.496-.8-.92-1.27-1.268A5.182 5.182 0 005.586 0c-1.544 0-2.965.59-4 1.664C.563 2.724 0 4.172 0 5.743c0 1.616.63 3.095 1.984 4.655 1.21 1.396 2.95 2.812 4.965 4.453.688.56 1.468 1.195 2.278 1.871A1.2 1.2 0 0010 17c.285 0 .56-.099.773-.277.81-.677 1.59-1.312 2.278-1.873 2.015-1.64 3.755-3.056 4.966-4.452C19.37 8.838 20 7.358 20 5.742c0-1.57-.564-3.018-1.587-4.078z" fill="#FF6767"/></svg>